<svg xmlns="http://www.w3.org/2000/svg" width="236" height="45" viewBox="0 0 236 45">
    <g fill="none" fill-rule="evenodd">
        <path fill="#A69FFF" d="M17.223 36.063a.336.336 0 0 1-.48-.002 19.834 19.834 0 0 1-5.612-13.882c0-5.223 1.99-10.14 5.613-13.885a.337.337 0 0 1 .479-.002l1.903 1.903c.13.131.13.34.003.473a16.498 16.498 0 0 0-4.634 11.511 16.508 16.508 0 0 0 4.634 11.509.336.336 0 0 1-.003.472l-1.903 1.903zM44.994 36.063l-1.903-1.903a.336.336 0 0 1-.003-.472 16.5 16.5 0 0 0 4.634-11.511 16.504 16.504 0 0 0-4.634-11.509.337.337 0 0 1 .003-.473l1.903-1.903a.337.337 0 0 1 .48.002 19.839 19.839 0 0 1 5.612 13.883 19.84 19.84 0 0 1-5.613 13.884.336.336 0 0 1-.479.002M24.863 28.423a8.774 8.774 0 0 1-2.587-6.244c0-2.36.918-4.578 2.587-6.247l2.38 2.38a5.429 5.429 0 0 0-1.603 3.866c0 1.46.57 2.833 1.602 3.866l-2.379 2.379zM37.11 28.18l-1.905-1.906a.334.334 0 0 1-.015-.46 5.424 5.424 0 0 0 1.386-3.636c0-1.355-.49-2.635-1.386-3.637a.335.335 0 0 1 .015-.46l1.905-1.905a.339.339 0 0 1 .488.01 8.77 8.77 0 0 1 2.342 5.992 8.77 8.77 0 0 1-2.342 5.99.339.339 0 0 1-.488.012"/>
        <path fill="#A69FFF" d="M50.736 44.508L10.582 4.353a.338.338 0 0 0-.494.017C.752 15.18 1.136 31.54 11.246 41.89a.336.336 0 0 1 0 .474L9.34 44.267a.338.338 0 0 1-.48-.001C-3.034 32.112-2.953 12.548 9.101.493a1.682 1.682 0 0 1 2.38 0l40.154 40.156a.339.339 0 0 0 .494-.016c4.36-5.04 6.737-11.403 6.737-18.132 0-7.304-2.8-14.177-7.896-19.391a.336.336 0 0 1 .001-.473L52.875.734a.337.337 0 0 1 .48 0c11.895 12.155 11.815 31.719-.24 43.774a1.682 1.682 0 0 1-2.379 0"/>
        <path fill="#FFF" d="M77.547 13.81v11.03a.168.168 0 0 1-.168.169h-1.045a.168.168 0 0 1-.168-.168V10.877c0-.092.075-.168.168-.168h.83c.053 0 .1.024.133.064l9.055 11.459c.099.125.3.056.3-.104v-11.23c0-.093.076-.168.168-.168h1.044c.094 0 .169.075.169.168V24.84a.168.168 0 0 1-.17.168h-.95a.17.17 0 0 1-.132-.063l-8.934-11.241a.168.168 0 0 0-.3.105M107.185 23.928v.913a.169.169 0 0 1-.17.168h-9.208a.168.168 0 0 1-.168-.168V10.877c0-.093.075-.168.168-.168h9.029c.093 0 .168.075.168.168v.913a.168.168 0 0 1-.168.168h-7.648a.168.168 0 0 0-.168.168v4.82c0 .092.075.168.168.168h6.628c.093 0 .168.075.168.168v.852a.168.168 0 0 1-.168.168h-6.628a.168.168 0 0 0-.168.168v5.122c0 .093.075.168.168.168h7.828c.094 0 .169.075.169.168M120.774 12.742l-2.668 6.456a.168.168 0 0 0 .155.232h5.264c.12 0 .2-.12.155-.231l-2.594-6.456a.169.169 0 0 0-.312-.001m-6.27 12.034l5.804-13.963a.17.17 0 0 1 .155-.104h.916a.17.17 0 0 1 .157.104l5.803 13.963a.169.169 0 0 1-.156.233h-1.136a.168.168 0 0 1-.155-.104l-1.756-4.263a.167.167 0 0 0-.155-.104h-6.158a.166.166 0 0 0-.155.104l-1.737 4.262a.166.166 0 0 1-.155.105h-1.116a.17.17 0 0 1-.156-.233M136.882 18.315c0 .093.075.168.168.168h4.494c.414 0 .79-.09 1.13-.272.34-.181.632-.426.872-.735.239-.308.427-.658.56-1.047.133-.39.2-.8.2-1.23 0-.428-.077-.841-.23-1.237a3.432 3.432 0 0 0-.621-1.038 2.978 2.978 0 0 0-.92-.705 2.484 2.484 0 0 0-1.111-.261h-4.374a.168.168 0 0 0-.168.168v6.189zM135.5 24.84V10.877c0-.093.075-.168.168-.168h5.816c.613 0 1.18.13 1.7.393.52.262.968.604 1.342 1.027.373.423.663.903.87 1.44.207.538.31 1.08.31 1.63 0 .525-.077 1.025-.23 1.502-.154.476-.37.906-.651 1.289-.28.382-.614.704-1.001.967-.325.22-.684.38-1.076.483a.166.166 0 0 0-.096.25l3.21 5.06a.168.168 0 0 1-.142.259h-1.183a.165.165 0 0 1-.141-.078l-3.263-5.121a.169.169 0 0 0-.143-.078h-3.941a.168.168 0 0 0-.168.168v4.94a.17.17 0 0 1-.17.169h-1.043a.169.169 0 0 1-.168-.17z"/>
        <path fill="#A69FFF" d="M154.272 24.84V10.877c0-.093.075-.168.168-.168h2.946c.093 0 .168.075.168.168V24.84a.168.168 0 0 1-.168.168h-2.946a.168.168 0 0 1-.168-.168M176.936 13.61h-3.986a.168.168 0 0 0-.167.167V24.84a.168.168 0 0 1-.168.168h-2.947a.17.17 0 0 1-.168-.168V13.777a.168.168 0 0 0-.167-.168h-4.006a.168.168 0 0 1-.168-.168v-2.564c0-.093.075-.168.168-.168h11.61c.093 0 .167.075.167.168v2.564a.168.168 0 0 1-.168.168"/>
        <path fill="#FFF" d="M76.926 32.723c0 .093.075.168.168.168h1.579a.921.921 0 0 0 .75-.368c.09-.115.16-.25.212-.401.05-.152.076-.313.076-.482a1.35 1.35 0 0 0-.325-.888 1.07 1.07 0 0 0-.665-.355h-1.627a.168.168 0 0 0-.168.168v2.158zm-.76 2.833v-5.667c0-.093.075-.168.168-.168h2.33c.265 0 .508.054.73.164.222.11.414.257.574.44.16.183.286.389.376.617.09.229.135.46.135.698a2.061 2.061 0 0 1-.486 1.336c-.154.18-.34.324-.556.43a1.608 1.608 0 0 1-.722.162h-1.621a.168.168 0 0 0-.168.168v1.82a.169.169 0 0 1-.17.168h-.422a.168.168 0 0 1-.168-.168zM84.901 31.804a.17.17 0 0 1-.157.167c-.308.03-.583.123-.826.277a1.462 1.462 0 0 0-.592.721.182.182 0 0 0-.012.065v2.521a.168.168 0 0 1-.168.168h-.406a.168.168 0 0 1-.169-.168v-4.077c0-.093.075-.169.17-.169h.354c.093 0 .168.076.168.17v.294c0 .156.194.228.294.11.092-.108.194-.205.306-.29a1.48 1.48 0 0 1 .793-.317h.143c.04 0 .074.003.102.008v.52zM87.264 33.534c0 .23.038.445.114.643.076.197.18.369.313.515.132.147.287.262.464.347.177.084.367.127.57.127.202 0 .392-.043.569-.127.177-.085.333-.201.469-.351.135-.15.24-.324.316-.524.076-.2.114-.416.114-.647 0-.226-.038-.44-.114-.64a1.66 1.66 0 0 0-.316-.523 1.523 1.523 0 0 0-.47-.351 1.312 1.312 0 0 0-1.138.005 1.485 1.485 0 0 0-.464.355 1.667 1.667 0 0 0-.313.524c-.076.2-.114.416-.114.647m1.46 2.274a2.171 2.171 0 0 1-1.607-.685 2.218 2.218 0 0 1-.452-.727 2.387 2.387 0 0 1-.16-.871c0-.31.055-.603.164-.88.11-.275.262-.518.456-.726a2.143 2.143 0 0 1 1.6-.685 2.17 2.17 0 0 1 1.607.685 2.351 2.351 0 0 1 .62 1.606c0 .305-.053.595-.16.87a2.212 2.212 0 0 1-1.16 1.226 2.17 2.17 0 0 1-.907.187M93.121 31.31c.054 0 .104.025.135.068l1.157 1.556.067.135.076-.135 1.148-1.556a.169.169 0 0 1 .136-.068h.365c.138 0 .218.158.135.269l-1.37 1.846a.167.167 0 0 0 0 .2l1.375 1.83a.168.168 0 0 1-.134.269h-.363a.165.165 0 0 1-.135-.068l-1.157-1.547-.076-.127-.067.127-1.157 1.547a.165.165 0 0 1-.135.068h-.363a.168.168 0 0 1-.134-.27L94 33.627a.167.167 0 0 0 .001-.201l-1.37-1.846a.168.168 0 0 1 .134-.27h.357zM98.515 35.555v-4.077c0-.093.075-.169.168-.169h.406c.093 0 .168.076.168.17v4.076a.168.168 0 0 1-.168.168h-.406a.168.168 0 0 1-.168-.168m0-5.242v-.594c0-.093.075-.168.168-.168h.406c.093 0 .168.075.168.168v.594a.168.168 0 0 1-.168.168h-.406a.168.168 0 0 1-.168-.168M108.195 35.724h-.406a.168.168 0 0 1-.168-.168v-2.301c0-.462-.075-.803-.224-1.023-.149-.22-.37-.33-.663-.33-.304 0-.575.109-.814.325a1.779 1.779 0 0 0-.502.815.17.17 0 0 0-.009.054v2.46a.168.168 0 0 1-.168.168h-.406a.168.168 0 0 1-.168-.168v-2.301c0-.474-.074-.818-.22-1.032-.147-.214-.365-.321-.658-.321-.298 0-.569.106-.81.317a1.726 1.726 0 0 0-.508.815.193.193 0 0 0-.007.053v2.469a.168.168 0 0 1-.168.168h-.407a.168.168 0 0 1-.168-.168v-4.078c0-.092.076-.168.168-.168h.34c.092 0 .167.076.167.168v.252c0 .154.19.227.291.114a1.816 1.816 0 0 1 1.38-.61c.372 0 .666.1.882.3.133.122.234.266.305.432.05.119.211.145.288.04.377-.514.873-.772 1.488-.772.253 0 .465.046.637.139.172.094.308.223.41.39.1.166.174.36.22.587.044.226.066.47.066.736v2.47a.168.168 0 0 1-.168.168M110.786 35.555v-4.077c0-.093.075-.169.168-.169h.406c.093 0 .168.076.168.17v4.076a.168.168 0 0 1-.168.168h-.406a.168.168 0 0 1-.168-.168m0-5.242v-.594c0-.093.075-.168.168-.168h.406c.093 0 .168.075.168.168v.594a.168.168 0 0 1-.168.168h-.406a.168.168 0 0 1-.168-.168M116.272 35.504a3.728 3.728 0 0 1-.427.173 2.234 2.234 0 0 1-.302.076c-.112.02-.225.03-.343.03-.27 0-.504-.075-.7-.224-.198-.15-.296-.382-.296-.698v-2.8a.169.169 0 0 0-.168-.168h-.264a.168.168 0 0 1-.168-.168v-.247c0-.093.076-.168.168-.168h.263a.17.17 0 0 0 .17-.168v-1.135c0-.093.075-.17.168-.17h.405c.093 0 .168.077.168.17v1.135c0 .092.076.168.17.168h.65c.093 0 .167.075.167.168v.247a.168.168 0 0 1-.168.168h-.65a.168.168 0 0 0-.168.169v2.57c.011.164.063.283.16.356.096.073.209.11.338.11a1.08 1.08 0 0 0 .479-.104.168.168 0 0 1 .226.107l.121.403zM118.433 36.924a2.667 2.667 0 0 0 .388.034.354.354 0 0 0 .18-.047.487.487 0 0 0 .16-.18c.055-.092.116-.217.183-.378.062-.147.138-.335.228-.565a.182.182 0 0 0-.001-.128l-1.741-4.117a.17.17 0 0 1 .156-.234h.4c.068 0 .13.042.156.106l1.296 3.233a.169.169 0 0 0 .315-.006l1.176-3.222a.17.17 0 0 1 .159-.11h.345c.119 0 .2.118.158.228l-2.056 5.344c-.08.197-.21.37-.393.52-.182.15-.434.224-.755.224a1.4 1.4 0 0 1-.156-.009 2.313 2.313 0 0 1-.198-.033v-.66zM123.984 36.408a.169.169 0 0 1-.164-.205l.123-.547h-.085a.168.168 0 0 1-.168-.168v-.543c0-.093.075-.169.168-.169h.364c.093 0 .168.076.168.17v.682a.17.17 0 0 1-.009.054l-.206.612a.167.167 0 0 1-.159.114h-.032zM130.197 35.555v-4.077c0-.093.075-.169.168-.169h.406a.17.17 0 0 1 .17.17v4.076a.169.169 0 0 1-.17.168h-.406a.168.168 0 0 1-.168-.168m0-5.242v-.594c0-.093.075-.168.168-.168h.406c.093 0 .17.075.17.168v.594a.169.169 0 0 1-.17.168h-.406a.168.168 0 0 1-.168-.168M137.06 35.724h-.406a.169.169 0 0 1-.17-.168v-2.301c0-.474-.07-.818-.214-1.032-.144-.214-.361-.321-.654-.321-.152 0-.304.03-.455.089a1.763 1.763 0 0 0-.786.604 1.57 1.57 0 0 0-.22.439.167.167 0 0 0-.007.055v2.467a.169.169 0 0 1-.17.168h-.405a.168.168 0 0 1-.168-.168v-4.078c0-.092.075-.168.168-.168h.339c.092 0 .168.076.168.168v.276c0 .149.182.226.286.119a2.151 2.151 0 0 1 1.546-.639c.252 0 .463.046.632.139.169.094.304.223.406.39.1.166.172.36.214.587.042.226.064.47.064.736v2.47a.168.168 0 0 1-.168.168M144.376 35.25c.265 0 .511-.049.738-.148a1.21 1.21 0 0 0 .52-.393c.106-.107.16-.217.16-.33v-.532a.168.168 0 0 0-.111-.16 3.046 3.046 0 0 0-1.012-.17c-.371 0-.674.079-.907.236-.234.158-.35.364-.35.618a.839.839 0 0 0 .275.626 1.038 1.038 0 0 0 .687.253m-.194.558c-.208 0-.403-.035-.582-.106a1.39 1.39 0 0 1-.782-.727 1.31 1.31 0 0 1-.113-.545c0-.203.045-.388.135-.554.09-.167.218-.309.384-.427s.363-.212.59-.279c.229-.068.478-.102.748-.102a3.631 3.631 0 0 1 1.016.145.166.166 0 0 0 .216-.16v-.12c0-.361-.102-.644-.304-.85-.203-.205-.489-.308-.861-.308-.397 0-.811.137-1.243.411a.17.17 0 0 1-.243-.064l-.09-.178a.169.169 0 0 1 .058-.219c.527-.328 1.055-.492 1.585-.492.58 0 1.032.156 1.356.466.323.31.484.747.484 1.31v1.801c0 .131.045.215.134.251.059.024.102.074.102.138v.525a8.378 8.378 0 0 1-.193.025 1.637 1.637 0 0 1-.161.008.47.47 0 0 1-.35-.131.535.535 0 0 1-.156-.317l-.016-.312a1.924 1.924 0 0 1-.748.604c-.3.138-.623.207-.966.207M153.939 35.808c-.355 0-.704-.055-1.047-.165a2.601 2.601 0 0 1-.766-.383.166.166 0 0 1-.038-.223l.142-.22a.17.17 0 0 1 .24-.046c.21.146.422.26.632.34.26.098.531.147.819.147.322 0 .576-.063.764-.19a.609.609 0 0 0 .282-.537.483.483 0 0 0-.076-.275.638.638 0 0 0-.226-.198 1.835 1.835 0 0 0-.39-.152c-.156-.046-.34-.094-.548-.144a11.828 11.828 0 0 1-.685-.195 1.865 1.865 0 0 1-.47-.219.776.776 0 0 1-.272-.305 1.025 1.025 0 0 1-.084-.44c0-.219.043-.416.13-.587.089-.172.208-.316.36-.432.151-.115.33-.203.537-.262a2.38 2.38 0 0 1 .662-.089c.332 0 .64.054.928.161.225.084.422.19.591.315a.168.168 0 0 1 .035.238l-.133.18a.167.167 0 0 1-.231.036 1.894 1.894 0 0 0-.499-.266 2.131 2.131 0 0 0-.709-.122c-.27 0-.5.057-.688.173-.189.115-.282.3-.282.554 0 .101.018.186.054.254a.477.477 0 0 0 .183.177c.084.051.191.096.325.135.131.04.29.082.476.127.292.068.546.137.763.207.218.071.398.154.54.25.144.096.25.208.321.338.07.13.106.288.106.473 0 .412-.157.74-.472.981-.315.243-.74.364-1.274.364M161.483 35.724h-.406a.168.168 0 0 1-.168-.168v-2.301c0-.474-.072-.818-.215-1.032-.144-.214-.362-.321-.654-.321-.153 0-.304.03-.456.089a1.801 1.801 0 0 0-.43.24 1.676 1.676 0 0 0-.356.364 1.54 1.54 0 0 0-.218.439.167.167 0 0 0-.009.055v2.467a.168.168 0 0 1-.168.168h-.406a.168.168 0 0 1-.168-.168v-4.078c0-.092.075-.168.168-.168h.34c.091 0 .167.076.167.168v.276c0 .149.181.226.285.119a2.157 2.157 0 0 1 1.546-.639 1.3 1.3 0 0 1 .633.139c.168.094.304.223.405.39.101.166.173.36.215.587.042.226.064.47.064.736v2.47a.169.169 0 0 1-.169.168M165.4 35.25c.264 0 .51-.049.737-.148.228-.099.401-.229.52-.393.106-.107.16-.217.16-.33v-.532a.17.17 0 0 0-.11-.16 3.046 3.046 0 0 0-1.013-.17c-.37 0-.674.079-.907.236-.234.158-.35.364-.35.618a.85.85 0 0 0 .071.346.85.85 0 0 0 .203.28 1.038 1.038 0 0 0 .688.253m-.194.558c-.208 0-.403-.035-.582-.106a1.39 1.39 0 0 1-.782-.727 1.294 1.294 0 0 1-.113-.545c0-.203.045-.388.135-.554.09-.167.218-.309.384-.427s.363-.212.59-.279c.228-.068.477-.102.748-.102a3.612 3.612 0 0 1 1.015.145.167.167 0 0 0 .217-.16v-.12c0-.361-.102-.644-.304-.85-.203-.205-.49-.308-.86-.308-.398 0-.812.137-1.244.411a.17.17 0 0 1-.243-.064l-.09-.178a.17.17 0 0 1 .058-.219c.527-.328 1.055-.492 1.585-.492.58 0 1.032.156 1.355.466.323.31.485.747.485 1.31v1.801c0 .131.045.215.133.251.06.024.103.074.103.138v.525a9.13 9.13 0 0 1-.194.025 1.6 1.6 0 0 1-.16.008.47.47 0 0 1-.35-.131.535.535 0 0 1-.156-.317l-.017-.312a1.914 1.914 0 0 1-.747.604 2.293 2.293 0 0 1-.966.207M171.926 35.148a1.327 1.327 0 0 0 .828-.122c.178-.092.33-.216.456-.372.127-.155.224-.332.29-.529.069-.197.103-.4.103-.608a1.725 1.725 0 0 0-.439-1.154 1.503 1.503 0 0 0-.477-.355 1.353 1.353 0 0 0-.595-.132c-.135 0-.274.026-.418.08a1.84 1.84 0 0 0-.405.213 1.435 1.435 0 0 0-.33.312.957.957 0 0 0-.176.362.225.225 0 0 0-.004.044v1.2c0 .025.005.05.015.073.059.134.132.259.22.376a1.633 1.633 0 0 0 .932.611m.462.662c-.366 0-.69-.091-.967-.271a2.083 2.083 0 0 1-.375-.307c-.103-.108-.287-.026-.287.123v2.002a.169.169 0 0 1-.17.169h-.405a.168.168 0 0 1-.168-.169v-5.878c0-.093.075-.169.168-.169h.322c.093 0 .168.076.168.17v.188c0 .151.18.221.289.115.116-.113.246-.213.39-.3a1.77 1.77 0 0 1 .925-.248c.303 0 .582.061.835.185.253.125.473.293.659.503.185.213.33.455.434.732.104.276.157.563.157.862 0 .317-.048.614-.144.892-.096.28-.23.523-.405.727-.175.207-.383.37-.624.492-.243.12-.51.181-.802.181M176.48 35.555v-.61c0-.093.076-.169.169-.169h.287c.094 0 .168.076.168.17v.61a.168.168 0 0 1-.168.167h-.287a.168.168 0 0 1-.168-.168"/>
        <path stroke="#FFF" stroke-linecap="round" stroke-linejoin="round" stroke-width=".5" d="M195 17.163v10"/>
        <g fill="#A69FFF">
            <path d="M222.203 20a2.536 2.536 0 1 1 .001 5.073 2.536 2.536 0 0 1 0-5.073"/>
            <path d="M227.223 11.214c-.285 0-.6.056-.948.17-.388.125-.807.32-1.248.58-.448.265-.918.597-1.398.987-.99.806-1.996 1.832-2.99 3.053a32.265 32.265 0 0 0-2.9 4.236 32.276 32.276 0 0 0-2.218 4.63c-.561 1.472-.948 2.857-1.15 4.116-.098.612-.15 1.185-.155 1.705-.005.51.036.972.12 1.372.159.744.464 1.251.906 1.506.442.255 1.033.266 1.757.03.388-.125.808-.32 1.248-.58a11.46 11.46 0 0 0 1.399-.988c.99-.804 1.996-1.832 2.99-3.053a32.224 32.224 0 0 0 2.9-4.236 32.14 32.14 0 0 0 2.219-4.63c.56-1.471.946-2.856 1.15-4.116.097-.61.15-1.184.154-1.704a6.397 6.397 0 0 0-.12-1.371c-.16-.745-.464-1.252-.906-1.508-.23-.132-.501-.199-.81-.199M216.05 34.983l-.102-.001a2.77 2.77 0 0 1-1.312-.361 2.763 2.763 0 0 1-.97-.957 4.242 4.242 0 0 1-.517-1.349c-.205-.962-.197-2.147.024-3.52.215-1.342.624-2.807 1.213-4.357a33.47 33.47 0 0 1 2.302-4.805 33.314 33.314 0 0 1 3.01-4.395c1.047-1.286 2.111-2.372 3.165-3.23 1.08-.878 2.103-1.477 3.039-1.78.505-.165.985-.24 1.426-.226.484.015.925.136 1.314.36.387.224.714.546.967.956.234.376.409.83.519 1.35.205.961.197 2.146-.024 3.521-.216 1.341-.623 2.807-1.213 4.355a33.444 33.444 0 0 1-2.302 4.806 33.415 33.415 0 0 1-3.01 4.395c-1.046 1.285-2.112 2.372-3.166 3.228-1.08.88-2.102 1.479-3.038 1.782a4.3 4.3 0 0 1-1.325.228"/>
            <path d="M222.006 17.882c-1.777 0-3.498.132-5.12.394-1.553.25-2.946.607-4.138 1.062a11.55 11.55 0 0 0-1.554.718c-.445.25-.824.517-1.127.79-.565.51-.853 1.027-.853 1.537 0 .511.288 1.029.853 1.538.303.273.682.539 1.127.79.453.256.976.497 1.554.718 1.192.455 2.585.812 4.139 1.063 1.62.261 3.342.394 5.119.394 1.777 0 3.498-.133 5.119-.394 1.554-.251 2.947-.608 4.138-1.063a11.61 11.61 0 0 0 1.555-.718c.445-.251.824-.517 1.127-.79.566-.51.852-1.027.852-1.538 0-.51-.286-1.027-.852-1.537a6.296 6.296 0 0 0-1.127-.79 11.611 11.611 0 0 0-1.555-.718c-1.191-.455-2.584-.812-4.138-1.062a32.242 32.242 0 0 0-5.12-.394m0 10.219c-1.84 0-3.627-.138-5.312-.41-1.636-.264-3.109-.643-4.378-1.127-1.3-.496-2.33-1.081-3.062-1.74a4.22 4.22 0 0 1-.909-1.124 2.766 2.766 0 0 1-.344-1.317c0-.448.116-.89.344-1.316.21-.39.515-.769.91-1.123.73-.659 1.76-1.245 3.061-1.74 1.27-.485 2.742-.864 4.378-1.128a33.493 33.493 0 0 1 5.313-.41c1.84 0 3.628.138 5.312.41 1.636.264 3.109.643 4.379 1.127 1.3.496 2.33 1.082 3.061 1.741.394.354.7.733.91 1.123.228.426.345.868.345 1.316 0 .448-.117.892-.345 1.317-.21.39-.516.768-.91 1.123-.73.66-1.761 1.245-3.061 1.741-1.27.484-2.743.863-4.38 1.127-1.683.272-3.47.41-5.311.41"/>
            <path d="M228.033 33.57l.303.525-.303-.526c.442-.256.747-.762.906-1.507.084-.399.125-.86.12-1.371a11.414 11.414 0 0 0-.155-1.705c-.203-1.26-.59-2.644-1.15-4.115a32.191 32.191 0 0 0-2.218-4.63 32.224 32.224 0 0 0-2.9-4.237c-.995-1.22-2-2.247-2.99-3.052-.48-.391-.95-.723-1.399-.988-.44-.26-.86-.456-1.247-.58-.724-.236-1.316-.226-1.759.03-.441.255-.746.762-.905 1.507a6.34 6.34 0 0 0-.12 1.37c.005.52.057 1.095.155 1.706.203 1.259.589 2.644 1.15 4.116a32.267 32.267 0 0 0 2.218 4.63 32.347 32.347 0 0 0 2.9 4.235c.995 1.221 2 2.248 2.99 3.054.48.39.95.721 1.4.986.44.26.86.456 1.247.581.724.235 1.315.225 1.757-.03m-.807 1.413c-.415 0-.86-.076-1.325-.227-.936-.303-1.959-.903-3.039-1.78-1.053-.858-2.118-1.944-3.165-3.23a33.52 33.52 0 0 1-3.01-4.395 33.56 33.56 0 0 1-2.301-4.805c-.59-1.55-.999-3.015-1.214-4.356-.221-1.375-.229-2.56-.024-3.522.111-.519.285-.973.518-1.349.255-.41.58-.732.969-.956a2.76 2.76 0 0 1 1.312-.36c.442-.015.923.062 1.427.225.937.304 1.958.903 3.038 1.782 1.054.857 2.12 1.943 3.166 3.228a33.577 33.577 0 0 1 3.011 4.395 33.437 33.437 0 0 1 2.3 4.806c.59 1.549 1 3.014 1.214 4.356.221 1.374.23 2.56.024 3.521-.11.52-.285.973-.518 1.35-.254.41-.58.732-.968.956a2.754 2.754 0 0 1-1.415.361"/>
        </g>
    </g>
</svg>
